<svg xmlns="http://www.w3.org/2000/svg" width="520" height="520" viewBox="0 0 520 520" fill="none" role="presentation" aria-hidden="true">
  <defs>
    <linearGradient id="wmFade" x1="0" y1="1" x2="1" y2="0">
      <stop offset="0" stop-color="#C81E24" stop-opacity=".30"/>
      <stop offset="1" stop-color="#C81E24" stop-opacity="0"/>
    </linearGradient>
    <mask id="wmMask">
      <rect width="520" height="520" fill="url(#wmFade)"/>
    </mask>
  </defs>
  <g mask="url(#wmMask)" stroke="#C81E24" stroke-width="1">
    <path d="M0 40h520M0 80h520M0 120h520M0 160h520M0 200h520M0 240h520M0 280h520M0 320h520M0 360h520M0 400h520M0 440h520M0 480h520"/>
    <path d="M40 0v520M80 0v520M120 0v520M160 0v520M200 0v520M240 0v520M280 0v520M320 0v520M360 0v520M400 0v520M440 0v520M480 0v520"/>
  </g>
  <g mask="url(#wmMask)">
    <path d="M0 520V360h160z" fill="#C81E24" fill-opacity=".14"/>
    <path d="M0 360h160L0 520" stroke="#C81E24" stroke-width="2" stroke-opacity=".7" fill="none"/>
  </g>
</svg>
